REM DIRINDEX 1\8,1\2\11,1\3\12,1\3\14,1\5\15,1\5\16,1\6\17,1\6\18,1\4\19,1\4\20,1\4\21,1\4\22,1\7\23,1\7\24,1\7\25,1\2\9\26,1\2\9\27,1\2\10\28,1\2\10\29,1\2\10\30,1\2\10\31,1\2\10\32,1\3\13\33,1\3\13\34,1\3\13\35
REM DIRNAME folder01,folder02,folder03,folder04,folder05,folder06,folder07,folder08,folder09,folder10,folder11,folder12,folder13,folder14,folder15,folder16,folder17,folder18,folder19,folder20,folder21,folder22,folder23,folder24,folder25,folder26,folder27,folder28,folder29,folder30,folder31,folder32,folder33,folder34,folder35
TITLE ""
FILE "120 120_UNIT7_SET4.mp3" MP3
  TRACK 01 AUDIO
    TITLE "14:cjc123_2498"
    INDEX 01 00:00:00
  TRACK 02 AUDIO
    TITLE "0:"
    INDEX 01 00:02:38
  TRACK 03 AUDIO
    TITLE "33:cjc123_2499"
    INDEX 01 00:03:15
  TRACK 04 AUDIO
    TITLE "0:"
    INDEX 01 00:04:11
  TRACK 05 AUDIO
    TITLE "34:cjc123_2500"
    INDEX 01 00:04:38
  TRACK 06 AUDIO
    TITLE "0:"
    INDEX 01 00:05:34
  TRACK 07 AUDIO
    TITLE "35:cjc123_2501"
    INDEX 01 00:06:08
  TRACK 08 AUDIO
    TITLE "0:"
    INDEX 01 00:11:39
  TRACK 09 AUDIO
    TITLE "33:cjc123_2502"
    INDEX 01 00:12:14
  TRACK 10 AUDIO
    TITLE "0:"
    INDEX 01 00:13:26
  TRACK 11 AUDIO
    TITLE "34:cjc123_2503"
    INDEX 01 00:13:55
  TRACK 12 AUDIO
    TITLE "0:"
    INDEX 01 00:14:72
  TRACK 13 AUDIO
    TITLE "35:cjc123_2504"
    INDEX 01 00:15:44
  TRACK 14 AUDIO
    TITLE "0:"
    INDEX 01 00:19:65
  TRACK 15 AUDIO
    TITLE "33:cjc123_2505"
    INDEX 01 00:20:41
  TRACK 16 AUDIO
    TITLE "0:"
    INDEX 01 00:21:70
  TRACK 17 AUDIO
    TITLE "34:cjc123_2506"
    INDEX 01 00:22:21
  TRACK 18 AUDIO
    TITLE "0:"
    INDEX 01 00:23:46
  TRACK 19 AUDIO
    TITLE "35:cjc123_2507"
    INDEX 01 00:24:22
  TRACK 20 AUDIO
    TITLE "0:"
    INDEX 01 00:28:43
  TRACK 21 AUDIO
    TITLE "33:cjc123_2508"
    INDEX 01 00:29:15
  TRACK 22 AUDIO
    TITLE "0:"
    INDEX 01 00:30:24
  TRACK 23 AUDIO
    TITLE "34:cjc123_2509"
    INDEX 01 00:30:48
  TRACK 24 AUDIO
    TITLE "0:"
    INDEX 01 00:31:43
  TRACK 25 AUDIO
    TITLE "35:cjc123_2510"
    INDEX 01 00:32:27
  TRACK 26 AUDIO
    TITLE "0:"
    INDEX 01 00:37:50
  TRACK 27 AUDIO
    TITLE "33:cjc123_2511"
    INDEX 01 00:38:22
  TRACK 28 AUDIO
    TITLE "0:"
    INDEX 01 00:39:37
  TRACK 29 AUDIO
    TITLE "34:cjc123_2512"
    INDEX 01 00:39:56
  TRACK 30 AUDIO
    TITLE "0:"
    INDEX 01 00:40:60
  TRACK 31 AUDIO
    TITLE "35:cjc123_2513"
    INDEX 01 00:41:32
  TRACK 32 AUDIO
    TITLE "0:"
    INDEX 01 00:46:41
  TRACK 33 AUDIO
    TITLE "33:cjc123_2514"
    INDEX 01 00:47:13
  TRACK 34 AUDIO
    TITLE "0:"
    INDEX 01 00:48:12
  TRACK 35 AUDIO
    TITLE "34:cjc123_2515"
    INDEX 01 00:48:20
  TRACK 36 AUDIO
    TITLE "0:"
    INDEX 01 00:49:21
  TRACK 37 AUDIO
    TITLE "35:cjc123_2516"
    INDEX 01 00:49:69
  TRACK 38 AUDIO
    TITLE "0:"
    INDEX 01 00:53:70
  TRACK 39 AUDIO
    TITLE "33:cjc123_2517"
    INDEX 01 00:54:42
  TRACK 40 AUDIO
    TITLE "0:"
    INDEX 01 00:55:55
  TRACK 41 AUDIO
    TITLE "34:cjc123_2518"
    INDEX 01 00:56:10
  TRACK 42 AUDIO
    TITLE "0:"
    INDEX 01 00:57:25
  TRACK 43 AUDIO
    TITLE "35:cjc123_2519"
    INDEX 01 00:58:01
  TRACK 44 AUDIO
    TITLE "0:"
    INDEX 01 01:02:12
  TRACK 45 AUDIO
    TITLE "33:cjc123_2520"
    INDEX 01 01:02:73
  TRACK 46 AUDIO
    TITLE "0:"
    INDEX 01 01:04:03
  TRACK 47 AUDIO
    TITLE "34:cjc123_2521"
    INDEX 01 01:04:33
  TRACK 48 AUDIO
    TITLE "0:"
    INDEX 01 01:05:46
  TRACK 49 AUDIO
    TITLE "35:cjc123_2522"
    INDEX 01 01:06:22
  TRACK 50 AUDIO
    TITLE "0:"
    INDEX 01 01:13:12
  TRACK 51 AUDIO
    TITLE "33:cjc123_2523"
    INDEX 01 01:13:59
  TRACK 52 AUDIO
    TITLE "0:"
    INDEX 01 01:15:05
  TRACK 53 AUDIO
    TITLE "34:cjc123_2524"
    INDEX 01 01:15:23
  TRACK 54 AUDIO
    TITLE "0:"
    INDEX 01 01:16:40
  TRACK 55 AUDIO
    TITLE "35:cjc123_2525"
    INDEX 01 01:17:14
  TRACK 56 AUDIO
    TITLE "0:"
    INDEX 01 01:21:00
  TRACK 57 AUDIO
    TITLE "33:cjc123_2526"
    INDEX 01 01:21:53
  TRACK 58 AUDIO
    TITLE "0:"
    INDEX 01 01:22:70
  TRACK 59 AUDIO
    TITLE "34:cjc123_2527"
    INDEX 01 01:23:05
  TRACK 60 AUDIO
    TITLE "0:"
    INDEX 01 01:24:18
  TRACK 61 AUDIO
    TITLE "35:cjc123_2528"
    INDEX 01 01:24:69
  TRACK 62 AUDIO
    TITLE "0:"
    INDEX 01 01:28:37
  TRACK 63 AUDIO
    TITLE "33:cjc123_2529"
    INDEX 01 01:29:13
  TRACK 64 AUDIO
    TITLE "0:"
    INDEX 01 01:30:38
  TRACK 65 AUDIO
    TITLE "34:cjc123_2530"
    INDEX 01 01:30:69
  TRACK 66 AUDIO
    TITLE "0:"
    INDEX 01 01:32:10
  TRACK 67 AUDIO
    TITLE "35:cjc123_2531"
    INDEX 01 01:32:60
  TRACK 68 AUDIO
    TITLE "0:"
    INDEX 01 01:38:47
  TRACK 69 AUDIO
    TITLE "33:cjc123_2532"
    INDEX 01 01:39:27
  TRACK 70 AUDIO
    TITLE "0:"
    INDEX 01 01:40:60
  TRACK 71 AUDIO
    TITLE "34:cjc123_2533"
    INDEX 01 01:41:09
  TRACK 72 AUDIO
    TITLE "0:"
    INDEX 01 01:42:33
  TRACK 73 AUDIO
    TITLE "35:cjc123_2534"
    INDEX 01 01:43:09
  TRACK 74 AUDIO
    TITLE "0:"
    INDEX 01 01:47:74
  TRACK 75 AUDIO
    TITLE "33:cjc123_2535"
    INDEX 01 01:48:46
  TRACK 76 AUDIO
    TITLE "0:"
    INDEX 01 01:49:57
  TRACK 77 AUDIO
    TITLE "34:cjc123_2536"
    INDEX 01 01:50:11
  TRACK 78 AUDIO
    TITLE "0:"
    INDEX 01 01:51:19
  TRACK 79 AUDIO
    TITLE "35:cjc123_2537"
    INDEX 01 01:51:66
  TRACK 80 AUDIO
    TITLE "0:"
    INDEX 01 01:57:58
  TRACK 81 AUDIO
    TITLE "33:cjc123_2538"
    INDEX 01 01:58:32
  TRACK 82 AUDIO
    TITLE "0:"
    INDEX 01 01:59:44
  TRACK 83 AUDIO
    TITLE "34:cjc123_2539"
    INDEX 01 01:59:69
  TRACK 84 AUDIO
    TITLE "0:"
    INDEX 01 02:01:01
  TRACK 85 AUDIO
    TITLE "35:cjc123_2540"
    INDEX 01 02:01:60
  TRACK 86 AUDIO
    TITLE "0:"
    INDEX 01 02:06:26
  TRACK 87 AUDIO
    TITLE "33:cjc123_2541"
    INDEX 01 02:07:12
  TRACK 88 AUDIO
    TITLE "0:"
    INDEX 01 02:08:13
  TRACK 89 AUDIO
    TITLE "34:cjc123_2542"
    INDEX 01 02:08:43
  TRACK 90 AUDIO
    TITLE "0:"
    INDEX 01 02:09:50
  TRACK 91 AUDIO
    TITLE "35:cjc123_2543"
    INDEX 01 02:10:28
  TRACK 92 AUDIO
    TITLE "0:"
    INDEX 01 02:15:58
